<svg width="338" height="350" viewBox="0 0 338 350" fill="none" xmlns="http://www.w3.org/2000/svg">
<g clip-path="url(#clip0_84_10)">
<rect width="338" height="350" fill="#00FF2F"/>
<g clip-path="url(#clip1_84_10)">
<path d="M0 350C0 157.008 157.01 0 350 0V29.5773C173.319 29.5773 29.5773 173.319 29.5773 350H0Z" fill="white"/>
<path d="M15.1899 244.223C15.1899 238.347 14.3444 232.309 15.0857 226.465C15.8419 220.502 17.0068 214.534 18.4566 208.707C20.6331 199.958 22.6849 191.073 24.0516 182.157C24.4033 179.862 24.323 177.498 24.7292 175.224C24.8723 174.423 25.3741 174.461 25.9282 174.008C27.0712 173.072 27.0223 172.508 27.0576 170.654C27.1912 163.638 27.075 156.612 27.075 149.595C27.075 140.814 27.711 131.833 26.6058 123.114C26.0299 118.571 25.6351 114.222 25.4938 109.63C25.48 109.184 25.0192 104.398 24.6771 104.991C22.6805 108.452 21.4577 112.958 20.0551 116.685C18.6346 120.46 17.2769 124.598 16.8233 128.639C16.5826 130.783 16.5908 133.231 16.8233 135.381C17.0682 137.647 18.0048 139.685 18.0048 141.897C18.0048 148.178 18.6536 153.95 19.8814 160.09" stroke="white" stroke-width="50"/>
<path d="M28.9518 75.9561C28.9518 94.8098 23.6954 112.919 22.3142 131.628C21.822 138.295 20.3071 144.658 17.866 150.915C16.7891 153.675 15.7978 156.328 15.2597 159.221C13.8383 166.86 14.1186 175.307 15.5029 182.921" stroke="white" stroke-width="50"/>
<path d="M24.8858 8.71182C24.8858 13.0564 25.0296 17.4368 24.5209 21.761C24.1844 24.6217 23.2173 27.2939 22.766 30.1188C21.8183 36.0505 22.2871 42.396 23.183 48.2938C27.0355 73.6561 24.5475 99.384 21.3238 124.678C21.0616 126.735 21.6487 132.37 18.3004 129.022C16.4353 127.157 15.7452 125.007 15.5029 122.419C15.0324 117.393 15.1445 112.274 15.1901 107.232C15.2758 97.7625 18.9708 88.4429 21.2021 79.327C24.2907 66.7091 24.573 54.2678 24.573 41.3435C24.573 33.2348 24.573 25.1261 24.573 17.0174C24.573 14.4947 24.6175 12.624 23.322 10.5189C22.2871 8.83725 23.0574 7.64818 20.9241 6.14021C18.2387 4.24186 14.3902 3.07856 11.0894 3.53384C8.57622 3.88049 7.17695 5.8641 6.17209 7.99941C5.37366 9.69608 5.8072 11.965 5.8072 13.7855C5.8072 17.0522 5.8072 20.3188 5.8072 23.5855C5.8072 27.2478 5.61538 30.8896 7.07563 34.3411C8.81605 38.4548 12.0527 41.598 16.1632 43.3244C23.7188 46.4977 32.4551 46.7791 37.6222 39.4843C41.0811 34.6012 42.8522 28.729 45.5108 23.4117C46.5369 21.3596 46.5264 19.8028 48.9512 19.6412C51.9958 19.4382 51.1678 14.7442 53.104 13.16C55.5256 11.1787 63.9339 30.3599 64.4678 31.7868C65.6917 35.0579 65.8872 35.9444 67.1784 39.1194C67.299 39.4159 68.8495 43.9359 69.7674 44.0889C69.8338 44.0999 69.9532 36.6184 70.0107 36.0265C70.2852 33.1992 71.1724 30.3816 72.0436 27.6862C72.1445 27.3742 72.3298 26.6236 72.5649 26.8521C73.6546 27.9116 73.553 32.9132 73.5901 33.7156C74.0323 43.297 73.071 52.7913 70.7231 62.0902C69.6637 66.2859 68.2897 70.396 66.9699 74.5139C66.5394 75.8571 66.0064 77.2472 65.8579 78.6667C65.3714 83.3153 64.5959 88.1341 63.3558 92.6368C62.5817 95.4473 61.9241 98.265 60.9926 101.029C60.2334 103.282 59.0696 105.501 58.421 107.771C56.744 113.641 55.6241 119.733 53.9902 125.633C52.6687 130.406 50.7784 134.944 49.3856 139.69C47.5914 145.805 45.8091 151.691 43.1999 157.431C42.9391 158.005 42.0844 161.485 41.2538 161.636C39.3737 161.978 38.9229 161.112 37.7091 159.777" stroke="white" stroke-width="50"/>
<path d="M55.2239 101.603C54.5365 113.288 52.3214 124.887 51.9399 136.563C51.7935 141.04 51.5011 145.451 51.0885 149.907C51.0326 150.511 51.0783 151.406 50.8104 151.975C50.0697 153.549 50.3501 148.49 50.5498 146.762C51.3788 139.59 54.006 132.777 56.2664 125.963C58.7545 118.464 60.898 110.792 63.7206 103.41C69.8671 87.3343 76.4039 71.3184 83.1468 55.4873C88.9697 41.816 94.0088 27.9469 97.8988 13.6117C98.4692 11.5098 99.1795 9.4241 99.7927 7.33907C100.082 6.35706 100.298 6.3033 101.304 6.69617C103.571 7.58053 106.373 9.84987 108.289 11.3181C112.378 14.4504 115.16 18.2192 115.831 23.4812C116.487 28.6314 116.59 32.8209 115.101 38.0073C112.779 46.0947 110.561 54.1711 108.394 62.2986C105.034 74.8976 102.257 89.2312 93.4332 99.448C90.8179 102.476 86.9909 104.435 85.0755 107.927C84.5846 108.823 84.435 109.575 83.8244 110.447C82.8182 111.884 82.1301 113.564 81.1833 115.051C80.1328 116.702 80.2085 118.976 79.55 120.82C78.6864 123.238 77.8213 125.724 77.1174 128.188" stroke="white" stroke-width="50"/>
<path d="M164.378 19.6585C160.284 21.3239 156.45 24.371 153.119 27.2344C148.078 31.5673 143.069 36.7801 138.975 42.0038C134.302 47.9661 129.689 54.0184 125.109 60.0398C124.15 61.3012 123.276 62.5647 122.468 63.932C121.54 65.5027 121.276 67.1794 120.522 68.7625C119.904 70.0598 120.014 71.1253 119.966 72.6199C119.913 74.2543 118.245 76.343 117.255 77.5893C116.705 78.2829 114.598 81.4552 113.328 80.8907C111.962 80.2837 112.474 74.8329 112.39 73.5929C112.206 70.8773 112.147 68.1823 112.147 65.4611C112.147 64.1291 113.269 62.8857 113.711 61.6384C114.004 60.8087 114.555 60.1511 114.892 59.3448C115.445 58.0237 115.403 56.6443 115.726 55.2789C116.195 53.2979 118.421 52.0263 119.827 50.7264C120.721 49.8997 122.555 49.351 123.65 48.7108C126.237 47.1983 128.797 45.5676 131.33 43.9499C133.738 42.4116 135.999 40.6561 138.454 39.1889C142.004 37.0671 145.766 35.4142 149.47 33.5939C153.602 31.5636 157.253 29.1011 161.946 28.6244C169.934 27.8131 178.212 28.4159 186.237 28.4159C187.254 28.4159 188.483 28.6211 189.434 28.1379C190.176 27.761 191.708 27.2289 189.851 27.1649C157.297 26.0423 124.562 25.4435 92.1299 22.2996C88.6702 21.9643 82.8891 21.2618 79.0981 20.6316C78.3634 20.5095 76.2182 20.21 76.9435 20.0408C78.2861 19.7275 79.7002 19.9744 81.0789 19.9713C84.8668 19.9627 88.6547 19.9713 92.4427 19.9713C106.124 19.9713 119.84 20.2385 133.519 19.9018C141.415 19.7074 149.463 20.1544 157.324 19.45C165.106 18.7527 172.063 15.1491 179.808 14.0983C186.001 13.258 192.955 12.6122 198.887 15.1061C201.379 16.1542 203.736 17.6721 205.281 19.867C206.385 21.4357 207.789 22.6991 209.277 23.8982C210.176 24.6224 211.098 25.1144 211.536 26.2266C212.041 27.506 212.211 28.961 212.544 30.2925" stroke="white" stroke-width="50"/>
<path d="M207.227 25.9138C214.96 20.2428 224.71 20.007 233.499 17.1564C238.379 15.5739 243.149 14.0288 248.303 14.0288C251.605 14.0288 254.906 14.0288 258.208 14.0288" stroke="white" stroke-width="50"/>
<path d="M277.599 4.64584C277.185 4.8009 277.322 5.35843 277.112 5.68839C276.578 6.52855 275.263 7.26293 274.454 7.63448C271.053 9.19612 266.792 10.2277 263.073 10.6579C261.413 10.8498 262.394 10.0313 261.822 9.2678C259.93 6.74564 254.283 7.85663 251.796 8.24263C251.486 8.2907 250.631 8.63305 250.944 8.64227C252.357 8.68381 253.739 8.01076 255.01 7.51284C258.392 6.18823 262.29 4.36783 266.009 4.36783C268.73 4.36783 271 6.22805 273.533 6.93944C275.256 7.42345 280.143 6.52687 276.035 5.28875C273.183 4.42922 270.183 4.66047 267.243 4.64584C263.503 4.62724 259.07 3.7198 255.427 4.64584C252.642 5.35389 261.145 5.23331 264.011 5.44513C266.494 5.62864 269.026 5.86759 271.517 5.8969C273.208 5.91679 274.9 5.87252 276.591 5.91427C280.16 6.00239 283.51 6.93886 286.999 7.59972C293.247 8.78303 298.972 9.02454 305.331 9.02454C305.583 9.02454 311.793 9.1891 308.701 8.6944C305.875 8.24215 303.167 7.85802 300.396 7.16533C296.404 6.16742 292.773 6.72369 288.771 7.13058C287.371 7.27302 282.57 8.18411 281.491 6.83519C280.922 6.12341 283.664 5.09853 283.906 5.02811C286.718 4.21172 290.019 4.64584 292.907 4.64584C297.232 4.64584 301.544 4.3025 305.887 4.33308C308.08 4.34853 311.267 3.93199 313.323 4.78485C313.891 5.01999 314.172 5.27137 314.818 5.27137" stroke="white" stroke-width="10"/>
<path d="M335.148 7.46072C334.444 5.80196 333.791 3.14011 332.176 2.0221C331.211 1.35376 328.947 1.83097 327.798 1.83097C323.778 1.83097 319.758 1.83097 315.739 1.83097C309.744 1.83097 303.75 1.83097 297.755 1.83097C286.611 1.83097 275.259 1.2222 264.15 2.45649" stroke="white" stroke-width="10"/>
<path d="M325.765 3.70756C327.803 3.70756 329.842 3.70756 331.881 3.70756C332.917 3.70756 333.843 2.83878 334.644 2.83878C334.86 2.83878 334.54 2.44927 334.522 1.41396C334.492 -0.353511 334.522 1.20511 334.522 2.00474C334.522 3.0528 334.332 5.75837 335.443 6.31393C335.705 6.44493 335.867 5.01821 335.634 4.78486C335.308 4.45913 334.339 4.64586 333.897 4.64586" stroke="white" stroke-width="10"/>
<path d="M14.2517 195.432C12.9814 198.358 12.1585 200.659 11.7496 203.772C11.3238 207.013 9.92478 209.965 9.40383 213.19C8.43708 219.174 7.32692 225.063 6.01555 230.983C5.31057 234.165 4.36774 237.609 3.99996 240.852C3.64203 244.008 3.61769 247.133 3.61769 250.304C3.61769 254.435 4.63529 258.535 5.49428 262.572C5.90786 264.516 6.69613 266.24 6.91909 268.271C7.05166 269.479 7.0581 270.69 7.0581 271.903C7.0581 272.077 7.13986 272.571 7.1971 272.406C7.66549 271.06 8.00516 269.672 8.41341 268.306C10.0399 262.863 11.5666 257.563 11.7322 251.851C11.7849 250.03 11.775 248.389 12.3056 246.621C12.5766 245.717 12.6878 244.917 12.6878 243.98C12.6878 241.852 12.4197 248.244 11.9581 250.322C11.096 254.201 9.78484 257.866 9.24744 261.807C8.86491 264.612 8.16801 267.345 7.68362 270.13C6.58014 276.475 3.98802 282.335 3.13117 288.774C2.69188 292.076 2.6794 295.39 2.6794 298.713C2.6794 299.578 2.92937 300.9 2.64465 301.754C2.14056 303.266 1.46743 300.377 1.4631 300.295C1.26376 296.507 1.42835 292.671 1.42835 288.879C1.42835 284.558 1.42835 280.237 1.42835 275.916C1.42835 270.927 2.50467 265.762 3.77408 260.938C4.09756 259.709 3.85256 258.719 4.55599 257.602C5.14884 256.661 5.18151 255.916 5.18151 254.857" stroke="white" stroke-width="10"/>
<path d="M6.11992 291.45C6.11992 296.014 6.11992 300.578 6.11992 305.142C6.11992 306.857 6.44366 308.891 5.65078 310.477C4.96696 311.844 5.35805 313.119 5.11213 314.595C3.95258 321.552 5.93857 328.155 6.88446 335.046C7.54445 339.855 7.0703 343.776 5.80716 348.512C5.68685 348.964 5.10701 350.523 4.38235 349.798C3.65946 349.075 4.57378 346.234 4.69511 345.489C5.51499 340.453 5.73831 325.105 5.42489 330.198C5.28668 332.444 5.24598 334.694 5.11213 336.94C5.08099 337.462 5.1874 339.168 4.5561 339.546C4.50523 339.577 3.93928 333.605 3.93058 332.839C3.89491 329.701 3.93058 326.561 3.93058 323.422C3.93058 320.63 3.93058 317.838 3.93058 315.047C3.93058 311.981 3.59296 309.239 3.2703 306.254C3.24301 306.002 2.74902 304.226 2.74902 304.673C2.74902 307.129 3.55366 309.794 3.86107 312.232C4.19966 314.917 5.03419 317.422 5.4944 320.068C6.06664 323.359 6.43269 326.413 6.43269 329.764C6.43269 331.601 6.91452 332.875 7.07559 334.646C7.20598 336.081 8.34675 339.929 6.11992 339.929" stroke="white" stroke-width="10"/>
</g>
</g>
<defs>
<clipPath id="clip0_84_10">
<rect width="338" height="350" fill="white"/>
</clipPath>
<clipPath id="clip1_84_10">
<rect width="350" height="350" fill="white"/>
</clipPath>
</defs>
</svg>
